<svg width="90" height="90" viewBox="0 0 90 90" fill="none" xmlns="http://www.w3.org/2000/svg">
<g opacity="0.6" filter="url(#filter0_d_1_285)">
<rect x="16" y="8" width="58" height="58" rx="29" fill="white"/>
<rect width="24" height="24" transform="translate(33 25)" fill="white" fill-opacity="0.01"/>
<path fill-rule="evenodd" clip-rule="evenodd" d="M39.3905 25.3905C39.8639 24.9172 40.6046 24.8741 41.1266 25.2614L41.2761 25.3905L51.9428 36.0572C52.4162 36.5306 52.4592 37.2713 52.0719 37.7933L51.9428 37.9428L41.2761 48.6095C40.7554 49.1302 39.9112 49.1302 39.3905 48.6095C38.9172 48.1361 38.8741 47.3954 39.2614 46.8734L39.3905 46.7239L49.1138 37L39.3905 27.2761C38.9172 26.8028 38.8741 26.062 39.2614 25.5401L39.3905 25.3905Z" fill="#1E1E1E"/>
</g>
<defs>
<filter id="filter0_d_1_285" x="0" y="0" width="90" height="90" filterUnits="userSpaceOnUse" color-interpolation-filters="sRGB">
<feFlood flood-opacity="0" result="BackgroundImageFix"/>
<feColorMatrix in="SourceAlpha" type="matrix" values="0 0 0 0 0 0 0 0 0 0 0 0 0 0 0 0 0 0 127 0" result="hardAlpha"/>
<feOffset dy="8"/>
<feGaussianBlur stdDeviation="8"/>
<feColorMatrix type="matrix" values="0 0 0 0 0 0 0 0 0 0 0 0 0 0 0 0 0 0 0.0364401 0"/>
<feBlend mode="normal" in2="BackgroundImageFix" result="effect1_dropShadow_1_285"/>
<feBlend mode="normal" in="SourceGraphic" in2="effect1_dropShadow_1_285" result="shape"/>
</filter>
</defs>
</svg>
