<svg width="108" height="20" viewBox="0 0 108 20" fill="none" xmlns="http://www.w3.org/2000/svg">
<g clip-path="url(#clip0_1524_134)">
<rect width="20" height="20" transform="translate(88)" fill="white" fill-opacity="0.01"/>
<path fill-rule="evenodd" clip-rule="evenodd" d="M93.4286 0H102.571C105.57 0 108 2.43045 108 5.42857V14.5714C108 17.5695 105.57 20 102.571 20H93.4286C90.4305 20 88 17.5695 88 14.5714V5.42857C88 2.43045 90.4305 0 93.4286 0ZM102.571 1.71429H93.4286C91.3772 1.71429 89.7143 3.37723 89.7143 5.42857V14.5714C89.7143 16.6228 91.3772 18.2857 93.4286 18.2857H102.571C104.623 18.2857 106.286 16.6228 106.286 14.5714V5.42857C106.286 3.37723 104.623 1.71429 102.571 1.71429ZM93.7143 10C93.7143 7.63307 95.6331 5.71429 98 5.71429C100.367 5.71429 102.286 7.63307 102.286 10C102.286 12.3669 100.367 14.2857 98 14.2857C95.6331 14.2857 93.7143 12.3669 93.7143 10ZM100.571 10C100.571 8.57984 99.4202 7.42857 98 7.42857C96.5798 7.42857 95.4286 8.57984 95.4286 10C95.4286 11.4202 96.5798 12.5714 98 12.5714C99.4202 12.5714 100.571 11.4202 100.571 10ZM103.992 4.74083C103.935 4.32246 103.577 4 103.143 4C102.669 4 102.286 4.38376 102.286 4.85829L102.294 4.9746C102.35 5.39297 102.709 5.71543 103.143 5.71543C103.616 5.71543 104 5.33167 104 4.85714L103.992 4.74083Z" fill="#6C757D"/>
<rect width="20" height="20" transform="translate(44)" fill="white" fill-opacity="0.01"/>
<path fill-rule="evenodd" clip-rule="evenodd" d="M54 0C48.4772 0 44 4.47715 44 10C44 15.5228 48.4772 20 54 20C55.793 20 57.4758 19.5281 58.931 18.7017C58.9786 18.6803 59.0236 18.6542 59.0653 18.6241C62.0183 16.8859 64 13.6744 64 10C64 4.47715 59.5228 0 54 0ZM59.2411 16.6434C60.8598 15.3646 62 13.5068 62.3491 11.3826C60.7288 11.3944 59.3418 11.5102 58.106 11.7487C58.6494 13.3291 59.0173 14.9388 59.2411 16.6434ZM60.5334 4.62266C61.7073 6.0472 62.4242 7.86225 62.4601 9.84364C60.5817 9.8521 58.9791 9.99452 57.552 10.2923C57.1568 9.34553 56.6942 8.40198 56.1573 7.44719C57.6213 6.74254 59.0466 5.81887 60.5334 4.62266ZM59.4452 3.52305C57.9736 2.28459 56.0739 1.53846 54 1.53846C53.3827 1.53846 52.7808 1.60457 52.201 1.73009C53.4344 3.26005 54.4822 4.70739 55.3658 6.11677C56.7331 5.47312 58.0592 4.62559 59.4452 3.52305ZM53.9247 6.71479C53.0152 5.28848 51.9255 3.81343 50.6295 2.23638C48.2455 3.27281 46.4319 5.37519 45.7905 7.94184C49.0239 7.89181 51.5799 7.56147 53.9247 6.71479ZM45.554 9.48351C45.5437 9.65436 45.5385 9.82657 45.5385 10C45.5385 12.4249 46.5585 14.6116 48.1929 16.1543L49.2134 15.132C51.4584 12.9225 53.4886 11.4927 56.0471 10.6839C55.6742 9.81246 55.2394 8.94172 54.7362 8.05831C52.0823 9.06725 49.2068 9.44336 45.554 9.48351ZM50.5478 15.9798C52.5445 14.0553 54.3377 12.8208 56.6062 12.1207C57.2184 13.8674 57.5992 15.6459 57.8005 17.5621C56.6577 18.1375 55.3667 18.4615 54 18.4615C52.3086 18.4615 50.7331 17.9653 49.4112 17.1104L50.0663 16.4531L50.5478 15.9798Z" fill="#6C757D"/>
<rect width="20" height="20" fill="white" fill-opacity="0.01"/>
<path fill-rule="evenodd" clip-rule="evenodd" d="M15.8013 0C16.1907 0 16.5126 0.289389 16.5635 0.664851L16.5705 0.769231V4.87179C16.5705 5.26123 16.2811 5.58307 15.9057 5.634L15.8013 5.64103H12.7244C12.603 5.64103 12.5013 5.72537 12.4747 5.83864L12.4679 5.89744V7.17949H15.8013C16.2684 7.17949 16.6194 7.58917 16.5654 8.03852L16.5475 8.13528L15.5219 12.2378C15.4458 12.5422 15.1942 12.7659 14.8914 12.8118L14.7756 12.8205H12.4679V19.2308C12.4679 19.6202 12.1786 19.942 11.8031 19.993L11.6987 20H7.59615C7.20672 20 6.88488 19.7106 6.83395 19.3351L6.82692 19.2308V12.8205H4.51923C4.1298 12.8205 3.80796 12.5311 3.75702 12.1557L3.75 12.0513V7.94872C3.75 7.55929 4.03939 7.23745 4.41485 7.18651L4.51923 7.17949H6.82692V5.89744C6.82692 2.71612 9.34591 0.123142 12.4981 0.00425855L12.7244 0H15.8013ZM15.0321 1.53846H12.7244C10.3878 1.53846 8.48058 3.37693 8.37041 5.68624L8.36539 5.89744V7.94872C8.36539 8.33815 8.076 8.65999 7.70053 8.71093L7.59615 8.71795H5.28846V11.2821H7.59615C7.98559 11.2821 8.30743 11.5714 8.35836 11.9469L8.36539 12.0513V18.4615H10.9295V12.0513C10.9295 11.6619 11.2189 11.34 11.5943 11.2891L11.6987 11.2821H14.1746L14.8156 8.71795H11.6987C11.3093 8.71795 10.9874 8.42856 10.9365 8.0531L10.9295 7.94872V5.89744C10.9295 4.95572 11.6547 4.18339 12.5772 4.10851L12.7244 4.10256H15.0321V1.53846Z" fill="#6C757D"/>
</g>
<defs>
<clipPath id="clip0_1524_134">
<rect width="108" height="20" fill="white"/>
</clipPath>
</defs>
</svg>
